<mxfile host="app.diagrams.net" modified="2022-02-06T19:15:51.473Z" agent="5.0 (Windows NT 10.0; Win64; x64) AppleWebKit/537.36 (KHTML, like Gecko) Chrome/97.0.4692.99 Safari/537.36" etag="E629vomBxFZVUgSlOXmG" version="16.5.3" type="github">
  <diagram id="npPh28W-qX2TLh46s_Oy" name="Page-1">
    <mxGraphModel dx="2272" dy="774" grid="1" gridSize="10" guides="1" tooltips="1" connect="1" arrows="1" fold="1" page="1" pageScale="1" pageWidth="850" pageHeight="1100" math="0" shadow="0">
      <root>
        <mxCell id="0" />
        <mxCell id="1" parent="0" />
        <mxCell id="wHJ3wkjWO6lctwNSovaK-1" value="Airline company" style="swimlane;fontStyle=1;align=center;verticalAlign=top;childLayout=stackLayout;horizontal=1;startSize=26;horizontalStack=0;resizeParent=1;resizeParentMax=0;resizeLast=0;collapsible=1;marginBottom=0;" vertex="1" parent="1">
          <mxGeometry x="220" y="80" width="160" height="60" as="geometry" />
        </mxCell>
        <mxCell id="wHJ3wkjWO6lctwNSovaK-2" value="+ ID: int" style="text;strokeColor=none;fillColor=none;align=left;verticalAlign=top;spacingLeft=4;spacingRight=4;overflow=hidden;rotatable=0;points=[[0,0.5],[1,0.5]];portConstraint=eastwest;" vertex="1" parent="wHJ3wkjWO6lctwNSovaK-1">
          <mxGeometry y="26" width="160" height="26" as="geometry" />
        </mxCell>
        <mxCell id="wHJ3wkjWO6lctwNSovaK-3" value="" style="line;strokeWidth=1;fillColor=none;align=left;verticalAlign=middle;spacingTop=-1;spacingLeft=3;spacingRight=3;rotatable=0;labelPosition=right;points=[];portConstraint=eastwest;" vertex="1" parent="wHJ3wkjWO6lctwNSovaK-1">
          <mxGeometry y="52" width="160" height="8" as="geometry" />
        </mxCell>
        <mxCell id="wHJ3wkjWO6lctwNSovaK-5" value="" style="endArrow=diamondThin;endFill=0;endSize=24;html=1;rounded=0;entryX=0.5;entryY=1;entryDx=0;entryDy=0;" edge="1" parent="1" target="wHJ3wkjWO6lctwNSovaK-1">
          <mxGeometry width="160" relative="1" as="geometry">
            <mxPoint x="140" y="290" as="sourcePoint" />
            <mxPoint x="310" y="150" as="targetPoint" />
            <Array as="points">
              <mxPoint x="140" y="230" />
              <mxPoint x="300" y="230" />
            </Array>
          </mxGeometry>
        </mxCell>
        <mxCell id="wHJ3wkjWO6lctwNSovaK-7" value="Plane" style="swimlane;fontStyle=1;align=center;verticalAlign=top;childLayout=stackLayout;horizontal=1;startSize=26;horizontalStack=0;resizeParent=1;resizeParentMax=0;resizeLast=0;collapsible=1;marginBottom=0;" vertex="1" parent="1">
          <mxGeometry x="60" y="290" width="160" height="86" as="geometry" />
        </mxCell>
        <mxCell id="wHJ3wkjWO6lctwNSovaK-8" value="+ field: type" style="text;strokeColor=none;fillColor=none;align=left;verticalAlign=top;spacingLeft=4;spacingRight=4;overflow=hidden;rotatable=0;points=[[0,0.5],[1,0.5]];portConstraint=eastwest;" vertex="1" parent="wHJ3wkjWO6lctwNSovaK-7">
          <mxGeometry y="26" width="160" height="26" as="geometry" />
        </mxCell>
        <mxCell id="wHJ3wkjWO6lctwNSovaK-9" value="" style="line;strokeWidth=1;fillColor=none;align=left;verticalAlign=middle;spacingTop=-1;spacingLeft=3;spacingRight=3;rotatable=0;labelPosition=right;points=[];portConstraint=eastwest;" vertex="1" parent="wHJ3wkjWO6lctwNSovaK-7">
          <mxGeometry y="52" width="160" height="8" as="geometry" />
        </mxCell>
        <mxCell id="wHJ3wkjWO6lctwNSovaK-10" value="+ method(type): type" style="text;strokeColor=none;fillColor=none;align=left;verticalAlign=top;spacingLeft=4;spacingRight=4;overflow=hidden;rotatable=0;points=[[0,0.5],[1,0.5]];portConstraint=eastwest;" vertex="1" parent="wHJ3wkjWO6lctwNSovaK-7">
          <mxGeometry y="60" width="160" height="26" as="geometry" />
        </mxCell>
        <mxCell id="wHJ3wkjWO6lctwNSovaK-11" value="Extends" style="endArrow=block;endSize=16;endFill=0;html=1;rounded=0;entryX=0.5;entryY=1.154;entryDx=0;entryDy=0;entryPerimeter=0;" edge="1" parent="1" target="wHJ3wkjWO6lctwNSovaK-10">
          <mxGeometry width="160" relative="1" as="geometry">
            <mxPoint x="50" y="520" as="sourcePoint" />
            <mxPoint x="140" y="410" as="targetPoint" />
            <Array as="points">
              <mxPoint x="50" y="460" />
              <mxPoint x="140" y="460" />
            </Array>
          </mxGeometry>
        </mxCell>
        <mxCell id="wHJ3wkjWO6lctwNSovaK-12" value="Boeing 737‎" style="swimlane;fontStyle=1;align=center;verticalAlign=top;childLayout=stackLayout;horizontal=1;startSize=26;horizontalStack=0;resizeParent=1;resizeParentMax=0;resizeLast=0;collapsible=1;marginBottom=0;" vertex="1" parent="1">
          <mxGeometry x="-30" y="520" width="160" height="60" as="geometry" />
        </mxCell>
        <mxCell id="wHJ3wkjWO6lctwNSovaK-14" value="" style="line;strokeWidth=1;fillColor=none;align=left;verticalAlign=middle;spacingTop=-1;spacingLeft=3;spacingRight=3;rotatable=0;labelPosition=right;points=[];portConstraint=eastwest;" vertex="1" parent="wHJ3wkjWO6lctwNSovaK-12">
          <mxGeometry y="26" width="160" height="8" as="geometry" />
        </mxCell>
        <mxCell id="wHJ3wkjWO6lctwNSovaK-15" value="+ doesItWork(): bool" style="text;strokeColor=none;fillColor=none;align=left;verticalAlign=top;spacingLeft=4;spacingRight=4;overflow=hidden;rotatable=0;points=[[0,0.5],[1,0.5]];portConstraint=eastwest;" vertex="1" parent="wHJ3wkjWO6lctwNSovaK-12">
          <mxGeometry y="34" width="160" height="26" as="geometry" />
        </mxCell>
        <mxCell id="wHJ3wkjWO6lctwNSovaK-16" value="Extends" style="endArrow=block;endSize=16;endFill=0;html=1;rounded=0;exitX=0.5;exitY=0;exitDx=0;exitDy=0;" edge="1" parent="1" source="wHJ3wkjWO6lctwNSovaK-17">
          <mxGeometry width="160" relative="1" as="geometry">
            <mxPoint x="270" y="510" as="sourcePoint" />
            <mxPoint x="140" y="380" as="targetPoint" />
            <Array as="points">
              <mxPoint x="270" y="460" />
              <mxPoint x="220" y="460" />
              <mxPoint x="140" y="460" />
            </Array>
          </mxGeometry>
        </mxCell>
        <mxCell id="wHJ3wkjWO6lctwNSovaK-17" value="Airbus A320‎" style="swimlane;fontStyle=1;align=center;verticalAlign=top;childLayout=stackLayout;horizontal=1;startSize=26;horizontalStack=0;resizeParent=1;resizeParentMax=0;resizeLast=0;collapsible=1;marginBottom=0;" vertex="1" parent="1">
          <mxGeometry x="190" y="520" width="160" height="60" as="geometry" />
        </mxCell>
        <mxCell id="wHJ3wkjWO6lctwNSovaK-19" value="" style="line;strokeWidth=1;fillColor=none;align=left;verticalAlign=middle;spacingTop=-1;spacingLeft=3;spacingRight=3;rotatable=0;labelPosition=right;points=[];portConstraint=eastwest;" vertex="1" parent="wHJ3wkjWO6lctwNSovaK-17">
          <mxGeometry y="26" width="160" height="8" as="geometry" />
        </mxCell>
        <mxCell id="wHJ3wkjWO6lctwNSovaK-20" value="+ doesItWork(): bool" style="text;strokeColor=none;fillColor=none;align=left;verticalAlign=top;spacingLeft=4;spacingRight=4;overflow=hidden;rotatable=0;points=[[0,0.5],[1,0.5]];portConstraint=eastwest;" vertex="1" parent="wHJ3wkjWO6lctwNSovaK-17">
          <mxGeometry y="34" width="160" height="26" as="geometry" />
        </mxCell>
        <mxCell id="wHJ3wkjWO6lctwNSovaK-31" value="Performs" style="endArrow=block;endFill=1;html=1;edgeStyle=orthogonalEdgeStyle;align=left;verticalAlign=top;rounded=0;" edge="1" parent="1">
          <mxGeometry x="-0.375" relative="1" as="geometry">
            <mxPoint x="380" y="109.71000000000001" as="sourcePoint" />
            <mxPoint x="540" y="109.71000000000001" as="targetPoint" />
            <mxPoint as="offset" />
          </mxGeometry>
        </mxCell>
        <mxCell id="wHJ3wkjWO6lctwNSovaK-32" value="1" style="edgeLabel;resizable=0;html=1;align=left;verticalAlign=bottom;" connectable="0" vertex="1" parent="wHJ3wkjWO6lctwNSovaK-31">
          <mxGeometry x="-1" relative="1" as="geometry" />
        </mxCell>
        <mxCell id="wHJ3wkjWO6lctwNSovaK-33" value="*" style="text;align=center;fontStyle=1;verticalAlign=middle;spacingLeft=3;spacingRight=3;strokeColor=none;rotatable=0;points=[[0,0.5],[1,0.5]];portConstraint=eastwest;" vertex="1" parent="1">
          <mxGeometry x="519" y="100" width="10" height="6" as="geometry" />
        </mxCell>
        <mxCell id="wHJ3wkjWO6lctwNSovaK-35" value="Flights" style="swimlane;fontStyle=1;align=center;verticalAlign=top;childLayout=stackLayout;horizontal=1;startSize=26;horizontalStack=0;resizeParent=1;resizeParentMax=0;resizeLast=0;collapsible=1;marginBottom=0;" vertex="1" parent="1">
          <mxGeometry x="540" y="70" width="160" height="148" as="geometry" />
        </mxCell>
        <mxCell id="wHJ3wkjWO6lctwNSovaK-36" value="+ flightID: int&#xa;+ departureA: String&#xa;+ landingA: String&#xa;+ departureTime: Time&#xa;+ landingTime: Time&#xa;+ pilotID: int&#xa;+ co-Pilot: int" style="text;strokeColor=none;fillColor=none;align=left;verticalAlign=top;spacingLeft=4;spacingRight=4;overflow=hidden;rotatable=0;points=[[0,0.5],[1,0.5]];portConstraint=eastwest;" vertex="1" parent="wHJ3wkjWO6lctwNSovaK-35">
          <mxGeometry y="26" width="160" height="114" as="geometry" />
        </mxCell>
        <mxCell id="wHJ3wkjWO6lctwNSovaK-37" value="" style="line;strokeWidth=1;fillColor=none;align=left;verticalAlign=middle;spacingTop=-1;spacingLeft=3;spacingRight=3;rotatable=0;labelPosition=right;points=[];portConstraint=eastwest;" vertex="1" parent="wHJ3wkjWO6lctwNSovaK-35">
          <mxGeometry y="140" width="160" height="8" as="geometry" />
        </mxCell>
        <mxCell id="wHJ3wkjWO6lctwNSovaK-44" value="Pilot" style="swimlane;fontStyle=1;align=center;verticalAlign=top;childLayout=stackLayout;horizontal=1;startSize=26;horizontalStack=0;resizeParent=1;resizeParentMax=0;resizeLast=0;collapsible=1;marginBottom=0;" vertex="1" parent="1">
          <mxGeometry x="429" y="280" width="160" height="78" as="geometry" />
        </mxCell>
        <mxCell id="wHJ3wkjWO6lctwNSovaK-45" value="+ pilotID: int&#xa;+ experienceLevel: int" style="text;strokeColor=none;fillColor=none;align=left;verticalAlign=top;spacingLeft=4;spacingRight=4;overflow=hidden;rotatable=0;points=[[0,0.5],[1,0.5]];portConstraint=eastwest;" vertex="1" parent="wHJ3wkjWO6lctwNSovaK-44">
          <mxGeometry y="26" width="160" height="44" as="geometry" />
        </mxCell>
        <mxCell id="wHJ3wkjWO6lctwNSovaK-46" value="" style="line;strokeWidth=1;fillColor=none;align=left;verticalAlign=middle;spacingTop=-1;spacingLeft=3;spacingRight=3;rotatable=0;labelPosition=right;points=[];portConstraint=eastwest;" vertex="1" parent="wHJ3wkjWO6lctwNSovaK-44">
          <mxGeometry y="70" width="160" height="8" as="geometry" />
        </mxCell>
        <mxCell id="wHJ3wkjWO6lctwNSovaK-48" value="Co-Pilot" style="swimlane;fontStyle=1;align=center;verticalAlign=top;childLayout=stackLayout;horizontal=1;startSize=26;horizontalStack=0;resizeParent=1;resizeParentMax=0;resizeLast=0;collapsible=1;marginBottom=0;" vertex="1" parent="1">
          <mxGeometry x="687" y="280" width="160" height="78" as="geometry" />
        </mxCell>
        <mxCell id="wHJ3wkjWO6lctwNSovaK-49" value="+ co-Pilot: int" style="text;strokeColor=none;fillColor=none;align=left;verticalAlign=top;spacingLeft=4;spacingRight=4;overflow=hidden;rotatable=0;points=[[0,0.5],[1,0.5]];portConstraint=eastwest;" vertex="1" parent="wHJ3wkjWO6lctwNSovaK-48">
          <mxGeometry y="26" width="160" height="44" as="geometry" />
        </mxCell>
        <mxCell id="wHJ3wkjWO6lctwNSovaK-50" value="" style="line;strokeWidth=1;fillColor=none;align=left;verticalAlign=middle;spacingTop=-1;spacingLeft=3;spacingRight=3;rotatable=0;labelPosition=right;points=[];portConstraint=eastwest;" vertex="1" parent="wHJ3wkjWO6lctwNSovaK-48">
          <mxGeometry y="70" width="160" height="8" as="geometry" />
        </mxCell>
        <mxCell id="wHJ3wkjWO6lctwNSovaK-52" value="Use" style="endArrow=block;endFill=1;html=1;edgeStyle=orthogonalEdgeStyle;align=left;verticalAlign=top;rounded=0;exitX=0.5;exitY=0;exitDx=0;exitDy=0;" edge="1" parent="1" source="wHJ3wkjWO6lctwNSovaK-44">
          <mxGeometry x="-0.1622" relative="1" as="geometry">
            <mxPoint x="405" y="250" as="sourcePoint" />
            <mxPoint x="615" y="218" as="targetPoint" />
            <Array as="points">
              <mxPoint x="510" y="250" />
              <mxPoint x="615" y="250" />
            </Array>
            <mxPoint as="offset" />
          </mxGeometry>
        </mxCell>
        <mxCell id="wHJ3wkjWO6lctwNSovaK-54" value="1" style="edgeLabel;resizable=0;html=1;align=left;verticalAlign=bottom;" connectable="0" vertex="1" parent="1">
          <mxGeometry x="510" y="280" as="geometry" />
        </mxCell>
        <mxCell id="wHJ3wkjWO6lctwNSovaK-55" value="1" style="edgeLabel;resizable=0;html=1;align=left;verticalAlign=bottom;" connectable="0" vertex="1" parent="1">
          <mxGeometry x="600" y="240" as="geometry" />
        </mxCell>
        <mxCell id="wHJ3wkjWO6lctwNSovaK-63" value="Use" style="endArrow=block;endFill=1;html=1;edgeStyle=orthogonalEdgeStyle;align=left;verticalAlign=top;rounded=0;exitX=0.5;exitY=0;exitDx=0;exitDy=0;" edge="1" parent="1" source="wHJ3wkjWO6lctwNSovaK-48">
          <mxGeometry x="0.3746" relative="1" as="geometry">
            <mxPoint x="740" y="260" as="sourcePoint" />
            <mxPoint x="640" y="220" as="targetPoint" />
            <Array as="points">
              <mxPoint x="740" y="250" />
              <mxPoint x="640" y="250" />
            </Array>
            <mxPoint as="offset" />
          </mxGeometry>
        </mxCell>
        <mxCell id="wHJ3wkjWO6lctwNSovaK-64" value="1" style="edgeLabel;resizable=0;html=1;align=left;verticalAlign=bottom;" connectable="0" vertex="1" parent="wHJ3wkjWO6lctwNSovaK-63">
          <mxGeometry x="-1" relative="1" as="geometry" />
        </mxCell>
        <mxCell id="wHJ3wkjWO6lctwNSovaK-65" value="1" style="edgeLabel;resizable=0;html=1;align=left;verticalAlign=bottom;" connectable="0" vertex="1" parent="1">
          <mxGeometry x="646" y="240" as="geometry" />
        </mxCell>
        <mxCell id="wHJ3wkjWO6lctwNSovaK-70" value="" style="line;strokeWidth=1;fillColor=none;align=left;verticalAlign=middle;spacingTop=-1;spacingLeft=3;spacingRight=3;rotatable=0;labelPosition=right;points=[];portConstraint=eastwest;" vertex="1" parent="1">
          <mxGeometry x="300" y="226" width="200" height="8" as="geometry" />
        </mxCell>
        <mxCell id="wHJ3wkjWO6lctwNSovaK-72" value="" style="line;strokeWidth=1;fillColor=none;align=left;verticalAlign=middle;spacingTop=-1;spacingLeft=3;spacingRight=3;rotatable=0;labelPosition=right;points=[];portConstraint=eastwest;flipH=1;flipV=1;direction=south;" vertex="1" parent="1">
          <mxGeometry x="496" y="230" width="8" height="50" as="geometry" />
        </mxCell>
        <mxCell id="wHJ3wkjWO6lctwNSovaK-73" value="Extends" style="endArrow=block;endSize=16;endFill=0;html=1;rounded=0;" edge="1" parent="1">
          <mxGeometry width="160" relative="1" as="geometry">
            <mxPoint x="686" y="320" as="sourcePoint" />
            <mxPoint x="590" y="320" as="targetPoint" />
          </mxGeometry>
        </mxCell>
        <mxCell id="wHJ3wkjWO6lctwNSovaK-74" value="Airports" style="swimlane;fontStyle=1;align=center;verticalAlign=top;childLayout=stackLayout;horizontal=1;startSize=26;horizontalStack=0;resizeParent=1;resizeParentMax=0;resizeLast=0;collapsible=1;marginBottom=0;" vertex="1" parent="1">
          <mxGeometry x="847" y="70" width="160" height="78" as="geometry" />
        </mxCell>
        <mxCell id="wHJ3wkjWO6lctwNSovaK-75" value="+ AirportID: int&#xa;+ AirportName: int" style="text;strokeColor=none;fillColor=none;align=left;verticalAlign=top;spacingLeft=4;spacingRight=4;overflow=hidden;rotatable=0;points=[[0,0.5],[1,0.5]];portConstraint=eastwest;" vertex="1" parent="wHJ3wkjWO6lctwNSovaK-74">
          <mxGeometry y="26" width="160" height="44" as="geometry" />
        </mxCell>
        <mxCell id="wHJ3wkjWO6lctwNSovaK-76" value="" style="line;strokeWidth=1;fillColor=none;align=left;verticalAlign=middle;spacingTop=-1;spacingLeft=3;spacingRight=3;rotatable=0;labelPosition=right;points=[];portConstraint=eastwest;" vertex="1" parent="wHJ3wkjWO6lctwNSovaK-74">
          <mxGeometry y="70" width="160" height="8" as="geometry" />
        </mxCell>
        <mxCell id="wHJ3wkjWO6lctwNSovaK-80" value="" style="line;strokeWidth=1;fillColor=none;align=left;verticalAlign=middle;spacingTop=-1;spacingLeft=3;spacingRight=3;rotatable=0;labelPosition=right;points=[];portConstraint=eastwest;" vertex="1" parent="1">
          <mxGeometry x="700" y="100" width="147" height="8" as="geometry" />
        </mxCell>
        <mxCell id="wHJ3wkjWO6lctwNSovaK-82" value="1" style="edgeLabel;resizable=0;html=1;align=left;verticalAlign=bottom;" connectable="0" vertex="1" parent="1">
          <mxGeometry x="830" y="104" as="geometry" />
        </mxCell>
        <mxCell id="wHJ3wkjWO6lctwNSovaK-83" value="*" style="edgeLabel;resizable=0;html=1;align=left;verticalAlign=bottom;fontStyle=1" connectable="0" vertex="1" parent="1">
          <mxGeometry x="710" y="103" as="geometry" />
        </mxCell>
        <mxCell id="wHJ3wkjWO6lctwNSovaK-84" value="includes flight" style="text;align=center;fontStyle=0;verticalAlign=middle;spacingLeft=3;spacingRight=3;strokeColor=none;rotatable=0;points=[[0,0.5],[1,0.5]];portConstraint=eastwest;fontColor=default;" vertex="1" parent="1">
          <mxGeometry x="752" y="88" width="43" height="16" as="geometry" />
        </mxCell>
        <mxCell id="wHJ3wkjWO6lctwNSovaK-85" value="" style="line;strokeWidth=1;fillColor=none;align=left;verticalAlign=middle;spacingTop=-1;spacingLeft=3;spacingRight=3;rotatable=0;labelPosition=right;points=[];portConstraint=eastwest;fontColor=default;" vertex="1" parent="1">
          <mxGeometry x="220" y="329" width="209" height="8" as="geometry" />
        </mxCell>
        <mxCell id="wHJ3wkjWO6lctwNSovaK-86" value="1" style="edgeLabel;resizable=0;html=1;align=left;verticalAlign=bottom;" connectable="0" vertex="1" parent="1">
          <mxGeometry x="222" y="332" as="geometry" />
        </mxCell>
        <mxCell id="wHJ3wkjWO6lctwNSovaK-88" value="n" style="edgeLabel;resizable=0;html=1;align=left;verticalAlign=bottom;" connectable="0" vertex="1" parent="1">
          <mxGeometry x="415" y="329" as="geometry" />
        </mxCell>
      </root>
    </mxGraphModel>
  </diagram>
</mxfile>
